<svg xmlns="http://www.w3.org/2000/svg" width="203" height="59" viewBox="0 0 203 59" fill="none"><path d="M51.4939 37.2109L45.9365 43.0624C45.3696 43.6476 44.825 44.2566 44.2026 44.8776C42.5576 46.6092 40.8681 48.4602 39.2232 50.1201C38.5229 50.8724 37.8338 51.589 37.1781 52.2816C35.4553 54.0609 33.7325 55.8642 32.0208 57.6793C31.9564 57.7285 31.897 57.7845 31.843 57.8465C31.4274 58.2509 30.8918 58.4836 30.3314 58.5033C30.2095 58.5198 30.0864 58.5198 29.9646 58.5033C29.5463 58.4151 29.1605 58.1995 28.8531 57.8823L28.6753 57.7032C27.5082 56.4254 26.3412 55.1476 25.1741 53.8937C24.6628 53.3205 24.1627 52.6996 23.6292 52.198C23.3068 51.8278 22.9956 51.4815 22.6733 51.1471L20.2614 48.5079L16.6824 44.5791L9.30223 36.375C8.93544 35.9928 8.59088 35.6107 8.19075 35.1808L4.70072 31.2997C2.6158 29.0659 1.14522 26.2573 0.450973 23.183C-0.24327 20.1088 -0.134221 16.8883 0.766103 13.8764C1.51611 10.5803 3.12881 7.58374 5.41359 5.2411C7.69836 2.89846 10.5597 1.30764 13.6592 0.656743C17.5358 -0.298817 21.6019 0.246746 25.1408 2.19725C27.0883 3.19954 28.8361 4.59878 30.2869 6.31721L30.398 6.44857L30.7871 6.96207L51.5939 33.8075L51.6495 33.8911C52.0147 34.365 52.2013 34.9689 52.1725 35.5835C52.1436 36.1981 51.9015 36.7787 51.4939 37.2109Z" fill="#FF007C"></path><path d="M48.9486 37.2347C48.3832 37.7379 47.6637 37.9971 46.9302 37.9618C46.1969 37.9264 45.5019 37.5992 44.9806 37.0437L44.7916 36.8168L44.1136 35.945L27.1748 14.0794L25.3853 11.7627C24.8857 11.1166 24.6454 10.2837 24.7173 9.4472C24.7892 8.61072 25.1674 7.83921 25.7687 7.30237C26.37 6.76552 27.1453 6.50734 27.9239 6.5846C28.7024 6.66187 29.4205 7.06825 29.9201 7.71437L30.0424 7.8696L49.3265 32.7924C49.5753 33.1119 49.7631 33.4812 49.8789 33.8788C49.9946 34.2765 50.036 34.6948 50.0009 35.1098C49.9659 35.5248 49.8549 35.9282 49.6742 36.2969C49.4936 36.6657 49.247 36.9926 48.9486 37.2586V37.2347Z" fill="#2F1D57"></path><path d="M50.5825 34.5837C48.6741 35.5894 46.6014 36.1857 44.4805 36.3391L26.8858 13.554C27.6109 10.603 29.0151 7.8953 30.9693 5.68007C32.9233 3.46483 35.3646 1.81319 38.0684 0.877107C40.7722 -0.058976 43.6516 -0.249434 46.4419 0.323252C49.2321 0.895938 51.8435 2.21337 54.0358 4.15435C56.2281 6.09532 57.9308 8.59751 58.9873 11.4307C60.0439 14.2638 60.4202 17.3369 60.0819 20.3673C59.7435 23.3977 58.7012 26.288 57.0509 28.7723C55.4007 31.2564 53.1954 33.2549 50.638 34.5837H50.5825Z" fill="#45C9F3"></path><path d="M39.2343 50.144C38.534 50.8963 37.8449 51.6128 37.1892 52.3055C35.4664 54.0848 33.7436 55.888 32.0319 57.7032C31.9677 57.7524 31.9081 57.8084 31.8541 57.8704C31.4385 58.2747 30.9029 58.5075 30.3425 58.5272C30.2207 58.5437 30.0975 58.5437 29.9757 58.5272C29.5574 58.4389 29.1716 58.2234 28.8642 57.9062L28.6864 57.7271C27.5193 56.4493 26.3523 55.1715 25.1852 53.9176C24.6739 53.3444 24.1738 52.7234 23.6403 52.2219C23.3179 51.8517 23.0067 51.5054 22.6844 51.171L20.2725 48.5318L16.6936 44.6029L9.30223 36.375C8.93544 35.9928 8.59088 35.6107 8.19075 35.1808L4.70072 31.2997C2.6158 29.0659 1.14522 26.2573 0.450973 23.183C-0.24327 20.1088 -0.134221 16.8883 0.766103 13.8764C1.51611 10.5803 3.12881 7.58374 5.41359 5.2411C7.69836 2.89845 10.5597 1.30764 13.6592 0.656738C6.80142 8.69364 6.89034 14.7004 7.19043 17.1485C7.71283 21.4715 10.1358 24.8749 24.196 37.3064C30.2202 42.6206 35.3552 46.9555 39.2343 50.144Z" fill="#F00075"></path><path d="M89.4071 24.0329H84.6977C84.3259 24.0329 84.1194 24.2884 84.0781 24.6716L83.8715 26.4172C82.5909 24.7567 80.7733 23.6072 78.336 23.6072C72.6765 23.6072 68.5455 28.4183 68.5455 34.5066C68.5455 40.5099 72.6765 45.1932 78.336 45.1932C80.8559 45.1932 82.6322 44.1714 83.8715 42.6387L84.0781 44.2566C84.1194 44.6397 84.3259 44.8952 84.6977 44.8952H89.4071C89.7789 44.8952 90.0268 44.6397 90.0268 44.2566V24.6716C90.0268 24.2884 89.7789 24.0329 89.4071 24.0329ZM79.1209 38.7642C76.8075 38.7642 75.1138 37.0612 75.1138 34.4641C75.1138 31.8244 76.8075 29.9936 79.1209 29.9936C81.5995 29.9936 83.1693 31.9521 83.1693 34.4641C83.1693 36.9761 81.5995 38.7642 79.1209 38.7642Z" fill="#2F1D57"></path><path d="M112.586 13.8147H107.009C106.637 13.8147 106.389 14.0701 106.389 14.4533V25.6508C105.15 24.4161 103.539 23.6072 101.515 23.6072C95.8554 23.6072 91.7243 28.4183 91.7243 34.5066C91.7243 40.5099 95.8554 45.1932 101.515 45.1932C104.035 45.1932 105.811 44.1714 107.05 42.6387L107.257 44.2566C107.298 44.6397 107.505 44.8952 107.877 44.8952H112.586C112.958 44.8952 113.206 44.6397 113.206 44.2566V14.4533C113.206 14.0701 112.958 13.8147 112.586 13.8147ZM102.3 38.7642C99.9864 38.7642 98.2927 37.0612 98.2927 34.4641C98.2927 31.8244 99.9864 29.9936 102.3 29.9936C104.778 29.9936 106.348 31.9521 106.348 34.4641C106.348 36.9761 104.778 38.7642 102.3 38.7642Z" fill="#2F1D57"></path><path d="M125.52 45.321C131.345 45.321 136.137 40.4673 136.137 34.4641C136.137 28.3757 131.345 23.5646 125.52 23.5646C119.654 23.5646 114.903 28.3757 114.903 34.4641C114.903 40.4673 119.654 45.321 125.52 45.321ZM125.52 38.7642C123.289 38.7642 121.472 36.9335 121.472 34.4641C121.472 31.9095 123.289 30.0787 125.52 30.0787C127.751 30.0787 129.568 31.9095 129.568 34.4641C129.568 36.9335 127.751 38.7642 125.52 38.7642Z" fill="#2F1D57"></path><path d="M147.569 45.321C153.394 45.321 158.186 40.4673 158.186 34.4641C158.186 28.3757 153.394 23.5646 147.569 23.5646C141.703 23.5646 136.952 28.3757 136.952 34.4641C136.952 40.4673 141.703 45.321 147.569 45.321ZM147.569 38.7642C145.338 38.7642 143.521 36.9335 143.521 34.4641C143.521 31.9095 145.338 30.0787 147.569 30.0787C149.8 30.0787 151.618 31.9095 151.618 34.4641C151.618 36.9335 149.8 38.7642 147.569 38.7642Z" fill="#2F1D57"></path><path d="M174.695 24.6716C174.116 24.1181 173.084 23.5646 171.844 23.5646C169.283 23.5646 167.631 25.0973 166.598 27.2261L166.433 24.6716C166.391 24.2884 166.185 24.0329 165.813 24.0329H160.443C160.071 24.0329 159.823 24.2884 159.823 24.6716V44.2566C159.823 44.6397 160.071 44.8952 160.443 44.8952H166.02C166.391 44.8952 166.639 44.6397 166.639 44.2566V34.3789C166.639 31.9095 168.044 29.951 170.646 29.951C171.39 29.951 171.927 30.1213 172.381 30.2916C172.877 30.4193 173.249 30.3342 173.414 29.7807L174.943 25.6934C175.067 25.3954 175.067 25.0548 174.695 24.6716Z" fill="#2F1D57"></path><path d="M194.188 34.0809C194.188 28.3757 190.388 23.6072 184.48 23.6072C178.614 23.6072 174.153 28.3757 174.153 34.3789C174.153 40.3821 178.531 45.1932 185.017 45.1932C187.909 45.1932 190.553 43.9585 192.494 42C192.825 41.6594 192.866 41.3614 192.577 41.0634L190.181 38.6365C189.933 38.3385 189.685 38.2959 189.272 38.5514C187.826 39.4455 186.752 39.6583 185.637 39.6583C183.2 39.6583 181.547 38.7217 180.969 36.8483H192.618C193.94 36.8483 194.188 35.9117 194.188 34.0809ZM184.563 29.5252C186.215 29.5252 187.661 30.3768 188.115 32.463H180.845C181.299 30.3768 182.828 29.5252 184.563 29.5252Z" fill="#2F1D57"></path><path d="M199.447 20.6269C201.43 20.6269 203 18.9664 203 16.9227C203 14.8791 201.43 13.2186 199.447 13.2186C197.423 13.2186 195.853 14.8791 195.853 16.9227C195.853 18.9664 197.423 20.6269 199.447 20.6269ZM196.019 24.6716V44.2566C196.019 44.6397 196.266 44.8952 196.638 44.8952H202.215C202.587 44.8952 202.835 44.6397 202.835 44.2566V24.6716C202.835 24.2884 202.587 24.0329 202.215 24.0329H196.638C196.266 24.0329 196.019 24.2884 196.019 24.6716Z" fill="#2F1D57"></path></svg>